<mxfile host="app.diagrams.net" agent="Mozilla/5.0 (Windows NT 10.0; Win64; x64; rv:133.0) Gecko/20100101 Firefox/133.0" version="25.0.3">
  <diagram name="Страница — 1" id="gvNFBIQ3NgeTq53GJnbs">
    <mxGraphModel dx="1050" dy="566" grid="1" gridSize="10" guides="1" tooltips="1" connect="1" arrows="1" fold="1" page="1" pageScale="1" pageWidth="827" pageHeight="1169" math="0" shadow="0">
      <root>
        <mxCell id="0" />
        <mxCell id="1" parent="0" />
        <mxCell id="urUO4fphp7MKT8ow5D5r-20" style="edgeStyle=orthogonalEdgeStyle;rounded=0;orthogonalLoop=1;jettySize=auto;html=1;exitX=0.5;exitY=1;exitDx=0;exitDy=0;" parent="1" source="urUO4fphp7MKT8ow5D5r-2" target="urUO4fphp7MKT8ow5D5r-3" edge="1">
          <mxGeometry relative="1" as="geometry" />
        </mxCell>
        <mxCell id="urUO4fphp7MKT8ow5D5r-2" value="Начало" style="rounded=1;whiteSpace=wrap;html=1;" parent="1" vertex="1">
          <mxGeometry x="80" y="80" width="80" height="20" as="geometry" />
        </mxCell>
        <mxCell id="urUO4fphp7MKT8ow5D5r-21" style="edgeStyle=orthogonalEdgeStyle;rounded=0;orthogonalLoop=1;jettySize=auto;html=1;exitX=0.5;exitY=1;exitDx=0;exitDy=0;entryX=0.5;entryY=0;entryDx=0;entryDy=0;" parent="1" source="urUO4fphp7MKT8ow5D5r-3" target="urUO4fphp7MKT8ow5D5r-4" edge="1">
          <mxGeometry relative="1" as="geometry" />
        </mxCell>
        <mxCell id="urUO4fphp7MKT8ow5D5r-3" value="1.Инициировать процедуры заключения договора" style="rounded=0;whiteSpace=wrap;html=1;" parent="1" vertex="1">
          <mxGeometry x="60" y="140" width="120" height="60" as="geometry" />
        </mxCell>
        <mxCell id="loOIdpemh6YYxHiMPRjy-1" style="edgeStyle=orthogonalEdgeStyle;rounded=0;orthogonalLoop=1;jettySize=auto;html=1;exitX=0.5;exitY=1;exitDx=0;exitDy=0;entryX=0.5;entryY=0;entryDx=0;entryDy=0;" parent="1" source="urUO4fphp7MKT8ow5D5r-4" target="urUO4fphp7MKT8ow5D5r-5" edge="1">
          <mxGeometry relative="1" as="geometry" />
        </mxCell>
        <mxCell id="urUO4fphp7MKT8ow5D5r-4" value="&lt;div&gt;2.Выявить требований заказчиков к форме договора&lt;/div&gt;" style="rounded=0;whiteSpace=wrap;html=1;" parent="1" vertex="1">
          <mxGeometry x="60" y="250" width="120" height="60" as="geometry" />
        </mxCell>
        <mxCell id="urUO4fphp7MKT8ow5D5r-6" style="edgeStyle=orthogonalEdgeStyle;rounded=0;orthogonalLoop=1;jettySize=auto;html=1;exitX=0;exitY=0.5;exitDx=0;exitDy=0;entryX=0;entryY=0.5;entryDx=0;entryDy=0;" parent="1" source="urUO4fphp7MKT8ow5D5r-5" target="urUO4fphp7MKT8ow5D5r-4" edge="1">
          <mxGeometry relative="1" as="geometry" />
        </mxCell>
        <mxCell id="urUO4fphp7MKT8ow5D5r-7" value="Нет" style="edgeLabel;html=1;align=center;verticalAlign=middle;resizable=0;points=[];" parent="urUO4fphp7MKT8ow5D5r-6" vertex="1" connectable="0">
          <mxGeometry x="-0.7488" relative="1" as="geometry">
            <mxPoint x="11" y="-10" as="offset" />
          </mxGeometry>
        </mxCell>
        <mxCell id="urUO4fphp7MKT8ow5D5r-9" style="edgeStyle=orthogonalEdgeStyle;rounded=0;orthogonalLoop=1;jettySize=auto;html=1;exitX=0.5;exitY=1;exitDx=0;exitDy=0;entryX=0.5;entryY=0;entryDx=0;entryDy=0;" parent="1" source="urUO4fphp7MKT8ow5D5r-5" target="urUO4fphp7MKT8ow5D5r-8" edge="1">
          <mxGeometry relative="1" as="geometry" />
        </mxCell>
        <mxCell id="urUO4fphp7MKT8ow5D5r-10" value="Да" style="edgeLabel;html=1;align=center;verticalAlign=middle;resizable=0;points=[];" parent="urUO4fphp7MKT8ow5D5r-9" vertex="1" connectable="0">
          <mxGeometry x="-0.2437" y="2" relative="1" as="geometry">
            <mxPoint x="8" as="offset" />
          </mxGeometry>
        </mxCell>
        <mxCell id="urUO4fphp7MKT8ow5D5r-5" value="Требования выполнены?" style="rhombus;whiteSpace=wrap;html=1;" parent="1" vertex="1">
          <mxGeometry x="70" y="350" width="100" height="80" as="geometry" />
        </mxCell>
        <mxCell id="loOIdpemh6YYxHiMPRjy-2" style="edgeStyle=orthogonalEdgeStyle;rounded=0;orthogonalLoop=1;jettySize=auto;html=1;exitX=0.5;exitY=1;exitDx=0;exitDy=0;" parent="1" source="urUO4fphp7MKT8ow5D5r-8" target="urUO4fphp7MKT8ow5D5r-11" edge="1">
          <mxGeometry relative="1" as="geometry" />
        </mxCell>
        <mxCell id="urUO4fphp7MKT8ow5D5r-8" value="3.Составить проект договора" style="rounded=0;whiteSpace=wrap;html=1;" parent="1" vertex="1">
          <mxGeometry x="60" y="460" width="120" height="60" as="geometry" />
        </mxCell>
        <mxCell id="urUO4fphp7MKT8ow5D5r-13" style="edgeStyle=orthogonalEdgeStyle;rounded=0;orthogonalLoop=1;jettySize=auto;html=1;exitX=0;exitY=0.5;exitDx=0;exitDy=0;entryX=0;entryY=0.5;entryDx=0;entryDy=0;" parent="1" source="urUO4fphp7MKT8ow5D5r-11" target="urUO4fphp7MKT8ow5D5r-8" edge="1">
          <mxGeometry relative="1" as="geometry" />
        </mxCell>
        <mxCell id="urUO4fphp7MKT8ow5D5r-14" value="Нет" style="edgeLabel;html=1;align=center;verticalAlign=middle;resizable=0;points=[];" parent="urUO4fphp7MKT8ow5D5r-13" vertex="1" connectable="0">
          <mxGeometry x="-0.6868" y="-2" relative="1" as="geometry">
            <mxPoint x="13" y="-8" as="offset" />
          </mxGeometry>
        </mxCell>
        <mxCell id="urUO4fphp7MKT8ow5D5r-16" style="edgeStyle=orthogonalEdgeStyle;rounded=0;orthogonalLoop=1;jettySize=auto;html=1;exitX=0.5;exitY=1;exitDx=0;exitDy=0;entryX=0.5;entryY=0;entryDx=0;entryDy=0;" parent="1" source="urUO4fphp7MKT8ow5D5r-11" target="urUO4fphp7MKT8ow5D5r-15" edge="1">
          <mxGeometry relative="1" as="geometry" />
        </mxCell>
        <mxCell id="urUO4fphp7MKT8ow5D5r-22" value="Да" style="edgeLabel;html=1;align=center;verticalAlign=middle;resizable=0;points=[];" parent="urUO4fphp7MKT8ow5D5r-16" vertex="1" connectable="0">
          <mxGeometry x="-0.4276" y="-2" relative="1" as="geometry">
            <mxPoint x="22" as="offset" />
          </mxGeometry>
        </mxCell>
        <mxCell id="urUO4fphp7MKT8ow5D5r-11" value="Договор составлен?" style="rhombus;whiteSpace=wrap;html=1;" parent="1" vertex="1">
          <mxGeometry x="70" y="550" width="100" height="80" as="geometry" />
        </mxCell>
        <mxCell id="urUO4fphp7MKT8ow5D5r-19" style="edgeStyle=orthogonalEdgeStyle;rounded=0;orthogonalLoop=1;jettySize=auto;html=1;exitX=0.5;exitY=1;exitDx=0;exitDy=0;entryX=0.5;entryY=0;entryDx=0;entryDy=0;" parent="1" source="urUO4fphp7MKT8ow5D5r-15" target="urUO4fphp7MKT8ow5D5r-18" edge="1">
          <mxGeometry relative="1" as="geometry" />
        </mxCell>
        <mxCell id="urUO4fphp7MKT8ow5D5r-15" value="4.Передать проект договора на согласование внутри компании" style="rounded=0;whiteSpace=wrap;html=1;" parent="1" vertex="1">
          <mxGeometry x="60" y="660" width="120" height="60" as="geometry" />
        </mxCell>
        <mxCell id="urUO4fphp7MKT8ow5D5r-18" value="Окончание" style="rounded=1;whiteSpace=wrap;html=1;" parent="1" vertex="1">
          <mxGeometry x="80" y="750" width="80" height="30" as="geometry" />
        </mxCell>
        <mxCell id="urUO4fphp7MKT8ow5D5r-30" style="edgeStyle=orthogonalEdgeStyle;rounded=0;orthogonalLoop=1;jettySize=auto;html=1;exitX=0.5;exitY=1;exitDx=0;exitDy=0;entryX=0.5;entryY=0;entryDx=0;entryDy=0;" parent="1" source="urUO4fphp7MKT8ow5D5r-25" target="urUO4fphp7MKT8ow5D5r-26" edge="1">
          <mxGeometry relative="1" as="geometry" />
        </mxCell>
        <mxCell id="urUO4fphp7MKT8ow5D5r-25" value="Начало" style="rounded=1;whiteSpace=wrap;html=1;" parent="1" vertex="1">
          <mxGeometry x="575" y="80" width="70" height="20" as="geometry" />
        </mxCell>
        <mxCell id="urUO4fphp7MKT8ow5D5r-31" style="edgeStyle=orthogonalEdgeStyle;rounded=0;orthogonalLoop=1;jettySize=auto;html=1;exitX=0.5;exitY=1;exitDx=0;exitDy=0;" parent="1" source="urUO4fphp7MKT8ow5D5r-26" target="urUO4fphp7MKT8ow5D5r-27" edge="1">
          <mxGeometry relative="1" as="geometry" />
        </mxCell>
        <mxCell id="urUO4fphp7MKT8ow5D5r-26" value="1.Поступил договор на внутреннее согласование" style="rounded=0;whiteSpace=wrap;html=1;" parent="1" vertex="1">
          <mxGeometry x="550" y="120" width="120" height="60" as="geometry" />
        </mxCell>
        <mxCell id="urUO4fphp7MKT8ow5D5r-32" style="edgeStyle=orthogonalEdgeStyle;rounded=0;orthogonalLoop=1;jettySize=auto;html=1;exitX=0.5;exitY=1;exitDx=0;exitDy=0;entryX=0.5;entryY=0;entryDx=0;entryDy=0;" parent="1" source="urUO4fphp7MKT8ow5D5r-27" edge="1">
          <mxGeometry relative="1" as="geometry">
            <mxPoint x="610" y="290" as="targetPoint" />
          </mxGeometry>
        </mxCell>
        <mxCell id="urUO4fphp7MKT8ow5D5r-27" value="2.Отправить договор в правовой отдел" style="rounded=0;whiteSpace=wrap;html=1;" parent="1" vertex="1">
          <mxGeometry x="550" y="205" width="120" height="60" as="geometry" />
        </mxCell>
        <mxCell id="urUO4fphp7MKT8ow5D5r-33" style="edgeStyle=orthogonalEdgeStyle;rounded=0;orthogonalLoop=1;jettySize=auto;html=1;exitX=0.5;exitY=1;exitDx=0;exitDy=0;entryX=0.5;entryY=0;entryDx=0;entryDy=0;" parent="1" target="urUO4fphp7MKT8ow5D5r-29" edge="1">
          <mxGeometry relative="1" as="geometry">
            <mxPoint x="610" y="350" as="sourcePoint" />
          </mxGeometry>
        </mxCell>
        <mxCell id="urUO4fphp7MKT8ow5D5r-42" style="edgeStyle=orthogonalEdgeStyle;rounded=0;orthogonalLoop=1;jettySize=auto;html=1;exitX=1;exitY=0.5;exitDx=0;exitDy=0;" parent="1" source="urUO4fphp7MKT8ow5D5r-29" target="urUO4fphp7MKT8ow5D5r-34" edge="1">
          <mxGeometry relative="1" as="geometry" />
        </mxCell>
        <mxCell id="urUO4fphp7MKT8ow5D5r-43" value="Нет" style="edgeLabel;html=1;align=center;verticalAlign=middle;resizable=0;points=[];" parent="urUO4fphp7MKT8ow5D5r-42" vertex="1" connectable="0">
          <mxGeometry x="-0.2015" y="-3" relative="1" as="geometry">
            <mxPoint y="-8" as="offset" />
          </mxGeometry>
        </mxCell>
        <mxCell id="urUO4fphp7MKT8ow5D5r-54" style="edgeStyle=orthogonalEdgeStyle;rounded=0;orthogonalLoop=1;jettySize=auto;html=1;exitX=0;exitY=0.5;exitDx=0;exitDy=0;" parent="1" source="urUO4fphp7MKT8ow5D5r-29" target="urUO4fphp7MKT8ow5D5r-53" edge="1">
          <mxGeometry relative="1" as="geometry" />
        </mxCell>
        <mxCell id="urUO4fphp7MKT8ow5D5r-55" value="Да" style="edgeLabel;html=1;align=center;verticalAlign=middle;resizable=0;points=[];" parent="urUO4fphp7MKT8ow5D5r-54" vertex="1" connectable="0">
          <mxGeometry x="-0.0838" y="2" relative="1" as="geometry">
            <mxPoint x="5" y="-7" as="offset" />
          </mxGeometry>
        </mxCell>
        <mxCell id="urUO4fphp7MKT8ow5D5r-29" value="Ошибки или опечатки выявлены?" style="rhombus;whiteSpace=wrap;html=1;" parent="1" vertex="1">
          <mxGeometry x="540" y="379.5" width="140" height="70.5" as="geometry" />
        </mxCell>
        <mxCell id="urUO4fphp7MKT8ow5D5r-44" style="edgeStyle=orthogonalEdgeStyle;rounded=0;orthogonalLoop=1;jettySize=auto;html=1;exitX=0.5;exitY=1;exitDx=0;exitDy=0;entryX=0.5;entryY=0;entryDx=0;entryDy=0;" parent="1" source="urUO4fphp7MKT8ow5D5r-34" target="urUO4fphp7MKT8ow5D5r-35" edge="1">
          <mxGeometry relative="1" as="geometry" />
        </mxCell>
        <mxCell id="urUO4fphp7MKT8ow5D5r-34" value="5.Передать проект на согласование согласующим должностным лицам" style="rounded=0;whiteSpace=wrap;html=1;" parent="1" vertex="1">
          <mxGeometry x="710" y="460" width="150" height="60" as="geometry" />
        </mxCell>
        <mxCell id="urUO4fphp7MKT8ow5D5r-45" style="edgeStyle=orthogonalEdgeStyle;rounded=0;orthogonalLoop=1;jettySize=auto;html=1;exitX=0.5;exitY=1;exitDx=0;exitDy=0;entryX=0.5;entryY=0;entryDx=0;entryDy=0;" parent="1" source="urUO4fphp7MKT8ow5D5r-35" target="urUO4fphp7MKT8ow5D5r-36" edge="1">
          <mxGeometry relative="1" as="geometry" />
        </mxCell>
        <mxCell id="urUO4fphp7MKT8ow5D5r-35" value="6.Провести экспертизы договора" style="rounded=0;whiteSpace=wrap;html=1;" parent="1" vertex="1">
          <mxGeometry x="725" y="545" width="120" height="60" as="geometry" />
        </mxCell>
        <mxCell id="urUO4fphp7MKT8ow5D5r-46" style="edgeStyle=orthogonalEdgeStyle;rounded=0;orthogonalLoop=1;jettySize=auto;html=1;exitX=0.5;exitY=1;exitDx=0;exitDy=0;entryX=0.5;entryY=0;entryDx=0;entryDy=0;" parent="1" source="urUO4fphp7MKT8ow5D5r-36" target="urUO4fphp7MKT8ow5D5r-37" edge="1">
          <mxGeometry relative="1" as="geometry" />
        </mxCell>
        <mxCell id="urUO4fphp7MKT8ow5D5r-36" value="2 дня" style="rounded=0;whiteSpace=wrap;html=1;" parent="1" vertex="1">
          <mxGeometry x="725" y="620" width="120" height="60" as="geometry" />
        </mxCell>
        <mxCell id="urUO4fphp7MKT8ow5D5r-47" style="edgeStyle=orthogonalEdgeStyle;rounded=0;orthogonalLoop=1;jettySize=auto;html=1;exitX=0;exitY=0.5;exitDx=0;exitDy=0;" parent="1" source="urUO4fphp7MKT8ow5D5r-37" target="urUO4fphp7MKT8ow5D5r-40" edge="1">
          <mxGeometry relative="1" as="geometry" />
        </mxCell>
        <mxCell id="urUO4fphp7MKT8ow5D5r-48" value="Да" style="edgeLabel;html=1;align=center;verticalAlign=middle;resizable=0;points=[];" parent="urUO4fphp7MKT8ow5D5r-47" vertex="1" connectable="0">
          <mxGeometry x="-0.3195" y="2" relative="1" as="geometry">
            <mxPoint x="3" y="-12" as="offset" />
          </mxGeometry>
        </mxCell>
        <mxCell id="urUO4fphp7MKT8ow5D5r-49" style="edgeStyle=orthogonalEdgeStyle;rounded=0;orthogonalLoop=1;jettySize=auto;html=1;exitX=1;exitY=0.5;exitDx=0;exitDy=0;entryX=0.5;entryY=0;entryDx=0;entryDy=0;" parent="1" source="urUO4fphp7MKT8ow5D5r-37" target="urUO4fphp7MKT8ow5D5r-38" edge="1">
          <mxGeometry relative="1" as="geometry" />
        </mxCell>
        <mxCell id="urUO4fphp7MKT8ow5D5r-50" value="Нет" style="edgeLabel;html=1;align=center;verticalAlign=middle;resizable=0;points=[];" parent="urUO4fphp7MKT8ow5D5r-49" vertex="1" connectable="0">
          <mxGeometry x="-0.5168" y="-1" relative="1" as="geometry">
            <mxPoint x="3" y="-11" as="offset" />
          </mxGeometry>
        </mxCell>
        <mxCell id="urUO4fphp7MKT8ow5D5r-37" value="Есть замечания к договору?" style="rhombus;whiteSpace=wrap;html=1;" parent="1" vertex="1">
          <mxGeometry x="732.5" y="700" width="105" height="80" as="geometry" />
        </mxCell>
        <mxCell id="urUO4fphp7MKT8ow5D5r-51" style="edgeStyle=orthogonalEdgeStyle;rounded=0;orthogonalLoop=1;jettySize=auto;html=1;exitX=0.5;exitY=1;exitDx=0;exitDy=0;entryX=0.5;entryY=0;entryDx=0;entryDy=0;" parent="1" source="urUO4fphp7MKT8ow5D5r-38" target="urUO4fphp7MKT8ow5D5r-39" edge="1">
          <mxGeometry relative="1" as="geometry" />
        </mxCell>
        <mxCell id="urUO4fphp7MKT8ow5D5r-38" value="9.Проставить на листе согласования визы" style="rounded=0;whiteSpace=wrap;html=1;" parent="1" vertex="1">
          <mxGeometry x="880" y="799" width="120" height="60" as="geometry" />
        </mxCell>
        <mxCell id="urUO4fphp7MKT8ow5D5r-39" value="Конец" style="rounded=1;whiteSpace=wrap;html=1;" parent="1" vertex="1">
          <mxGeometry x="905" y="915" width="70" height="30" as="geometry" />
        </mxCell>
        <mxCell id="urUO4fphp7MKT8ow5D5r-52" style="edgeStyle=orthogonalEdgeStyle;rounded=0;orthogonalLoop=1;jettySize=auto;html=1;exitX=0.5;exitY=1;exitDx=0;exitDy=0;entryX=0.5;entryY=0;entryDx=0;entryDy=0;" parent="1" source="urUO4fphp7MKT8ow5D5r-40" target="urUO4fphp7MKT8ow5D5r-41" edge="1">
          <mxGeometry relative="1" as="geometry" />
        </mxCell>
        <mxCell id="urUO4fphp7MKT8ow5D5r-40" value="7.Проставить отметки &quot;С замечаниями на листе согласования&quot;" style="rounded=0;whiteSpace=wrap;html=1;" parent="1" vertex="1">
          <mxGeometry x="570" y="800" width="120" height="60" as="geometry" />
        </mxCell>
        <mxCell id="urUO4fphp7MKT8ow5D5r-61" style="edgeStyle=orthogonalEdgeStyle;rounded=0;orthogonalLoop=1;jettySize=auto;html=1;exitX=0.5;exitY=1;exitDx=0;exitDy=0;entryX=1;entryY=0.5;entryDx=0;entryDy=0;" parent="1" source="urUO4fphp7MKT8ow5D5r-41" target="urUO4fphp7MKT8ow5D5r-53" edge="1">
          <mxGeometry relative="1" as="geometry" />
        </mxCell>
        <mxCell id="urUO4fphp7MKT8ow5D5r-41" value="8.Записать замечания на листе замечаний" style="rounded=0;whiteSpace=wrap;html=1;" parent="1" vertex="1">
          <mxGeometry x="570" y="900" width="120" height="60" as="geometry" />
        </mxCell>
        <mxCell id="urUO4fphp7MKT8ow5D5r-59" style="edgeStyle=orthogonalEdgeStyle;rounded=0;orthogonalLoop=1;jettySize=auto;html=1;exitX=0.5;exitY=1;exitDx=0;exitDy=0;entryX=0.5;entryY=0;entryDx=0;entryDy=0;" parent="1" source="urUO4fphp7MKT8ow5D5r-53" target="urUO4fphp7MKT8ow5D5r-56" edge="1">
          <mxGeometry relative="1" as="geometry" />
        </mxCell>
        <mxCell id="urUO4fphp7MKT8ow5D5r-53" value="3.Вернуть проект договора менеджеру" style="rounded=0;whiteSpace=wrap;html=1;" parent="1" vertex="1">
          <mxGeometry x="340" y="460" width="120" height="60" as="geometry" />
        </mxCell>
        <mxCell id="urUO4fphp7MKT8ow5D5r-60" style="edgeStyle=orthogonalEdgeStyle;rounded=0;orthogonalLoop=1;jettySize=auto;html=1;exitX=0.5;exitY=1;exitDx=0;exitDy=0;entryX=0.5;entryY=0;entryDx=0;entryDy=0;" parent="1" source="urUO4fphp7MKT8ow5D5r-56" edge="1">
          <mxGeometry relative="1" as="geometry">
            <mxPoint x="400" y="640" as="targetPoint" />
          </mxGeometry>
        </mxCell>
        <mxCell id="urUO4fphp7MKT8ow5D5r-56" value="4.Внести необходимые изменения" style="rounded=0;whiteSpace=wrap;html=1;" parent="1" vertex="1">
          <mxGeometry x="340" y="550" width="120" height="60" as="geometry" />
        </mxCell>
        <mxCell id="urUO4fphp7MKT8ow5D5r-58" style="edgeStyle=orthogonalEdgeStyle;rounded=0;orthogonalLoop=1;jettySize=auto;html=1;exitX=0;exitY=0.5;exitDx=0;exitDy=0;entryX=0;entryY=0.5;entryDx=0;entryDy=0;" parent="1" source="YELUM3OFP102UQ7-4eXt-3" target="urUO4fphp7MKT8ow5D5r-27" edge="1">
          <mxGeometry relative="1" as="geometry">
            <mxPoint x="340" y="670" as="sourcePoint" />
            <Array as="points">
              <mxPoint x="320" y="660" />
              <mxPoint x="320" y="235" />
            </Array>
          </mxGeometry>
        </mxCell>
        <mxCell id="urUO4fphp7MKT8ow5D5r-68" style="edgeStyle=orthogonalEdgeStyle;rounded=0;orthogonalLoop=1;jettySize=auto;html=1;exitX=0.5;exitY=1;exitDx=0;exitDy=0;entryX=0.5;entryY=0;entryDx=0;entryDy=0;" parent="1" source="urUO4fphp7MKT8ow5D5r-63" target="urUO4fphp7MKT8ow5D5r-64" edge="1">
          <mxGeometry relative="1" as="geometry" />
        </mxCell>
        <mxCell id="urUO4fphp7MKT8ow5D5r-63" value="Начало" style="rounded=1;whiteSpace=wrap;html=1;" parent="1" vertex="1">
          <mxGeometry x="985" y="80" width="70" height="30" as="geometry" />
        </mxCell>
        <mxCell id="urUO4fphp7MKT8ow5D5r-69" style="edgeStyle=orthogonalEdgeStyle;rounded=0;orthogonalLoop=1;jettySize=auto;html=1;exitX=0.5;exitY=1;exitDx=0;exitDy=0;entryX=0.5;entryY=0;entryDx=0;entryDy=0;" parent="1" source="urUO4fphp7MKT8ow5D5r-64" target="urUO4fphp7MKT8ow5D5r-66" edge="1">
          <mxGeometry relative="1" as="geometry">
            <mxPoint x="1020" y="230" as="targetPoint" />
          </mxGeometry>
        </mxCell>
        <mxCell id="urUO4fphp7MKT8ow5D5r-64" value="1.Отправить проект договора контрагенту" style="rounded=0;whiteSpace=wrap;html=1;" parent="1" vertex="1">
          <mxGeometry x="960" y="145" width="120" height="60" as="geometry" />
        </mxCell>
        <mxCell id="urUO4fphp7MKT8ow5D5r-71" style="edgeStyle=orthogonalEdgeStyle;rounded=0;orthogonalLoop=1;jettySize=auto;html=1;exitX=0.5;exitY=1;exitDx=0;exitDy=0;" parent="1" source="urUO4fphp7MKT8ow5D5r-66" target="urUO4fphp7MKT8ow5D5r-67" edge="1">
          <mxGeometry relative="1" as="geometry" />
        </mxCell>
        <mxCell id="urUO4fphp7MKT8ow5D5r-66" value="2.Передать договора гендиректору компании" style="rounded=0;whiteSpace=wrap;html=1;" parent="1" vertex="1">
          <mxGeometry x="960" y="249.5" width="120" height="60" as="geometry" />
        </mxCell>
        <mxCell id="urUO4fphp7MKT8ow5D5r-67" value="Окончание" style="rounded=1;whiteSpace=wrap;html=1;" parent="1" vertex="1">
          <mxGeometry x="985" y="349.5" width="70" height="30" as="geometry" />
        </mxCell>
        <mxCell id="urUO4fphp7MKT8ow5D5r-79" style="edgeStyle=orthogonalEdgeStyle;rounded=0;orthogonalLoop=1;jettySize=auto;html=1;exitX=0.5;exitY=1;exitDx=0;exitDy=0;entryX=0.5;entryY=0;entryDx=0;entryDy=0;" parent="1" source="urUO4fphp7MKT8ow5D5r-74" target="urUO4fphp7MKT8ow5D5r-75" edge="1">
          <mxGeometry relative="1" as="geometry" />
        </mxCell>
        <mxCell id="urUO4fphp7MKT8ow5D5r-74" value="Начало" style="rounded=1;whiteSpace=wrap;html=1;" parent="1" vertex="1">
          <mxGeometry x="1232.5" y="80" width="70" height="30" as="geometry" />
        </mxCell>
        <mxCell id="urUO4fphp7MKT8ow5D5r-80" style="edgeStyle=orthogonalEdgeStyle;rounded=0;orthogonalLoop=1;jettySize=auto;html=1;exitX=0.5;exitY=1;exitDx=0;exitDy=0;" parent="1" source="urUO4fphp7MKT8ow5D5r-75" edge="1">
          <mxGeometry relative="1" as="geometry">
            <mxPoint x="1267.5" y="240" as="targetPoint" />
          </mxGeometry>
        </mxCell>
        <mxCell id="urUO4fphp7MKT8ow5D5r-75" value="1.Подписать договора" style="rounded=0;whiteSpace=wrap;html=1;" parent="1" vertex="1">
          <mxGeometry x="1207.5" y="150" width="120" height="60" as="geometry" />
        </mxCell>
        <mxCell id="urUO4fphp7MKT8ow5D5r-81" style="edgeStyle=orthogonalEdgeStyle;rounded=0;orthogonalLoop=1;jettySize=auto;html=1;exitX=0.5;exitY=1;exitDx=0;exitDy=0;entryX=0.5;entryY=0;entryDx=0;entryDy=0;" parent="1" target="urUO4fphp7MKT8ow5D5r-77" edge="1">
          <mxGeometry relative="1" as="geometry">
            <mxPoint x="1267.5" y="270" as="sourcePoint" />
          </mxGeometry>
        </mxCell>
        <mxCell id="urUO4fphp7MKT8ow5D5r-78" style="edgeStyle=orthogonalEdgeStyle;rounded=0;orthogonalLoop=1;jettySize=auto;html=1;exitX=0;exitY=0.5;exitDx=0;exitDy=0;entryX=0;entryY=0.5;entryDx=0;entryDy=0;" parent="1" source="urUO4fphp7MKT8ow5D5r-77" target="urUO4fphp7MKT8ow5D5r-75" edge="1">
          <mxGeometry relative="1" as="geometry" />
        </mxCell>
        <mxCell id="urUO4fphp7MKT8ow5D5r-89" value="Нет" style="edgeLabel;html=1;align=center;verticalAlign=middle;resizable=0;points=[];" parent="urUO4fphp7MKT8ow5D5r-78" vertex="1" connectable="0">
          <mxGeometry x="-0.9167" y="-2" relative="1" as="geometry">
            <mxPoint x="1" y="-8" as="offset" />
          </mxGeometry>
        </mxCell>
        <mxCell id="urUO4fphp7MKT8ow5D5r-88" style="edgeStyle=orthogonalEdgeStyle;rounded=0;orthogonalLoop=1;jettySize=auto;html=1;exitX=0.5;exitY=1;exitDx=0;exitDy=0;entryX=0.5;entryY=0;entryDx=0;entryDy=0;" parent="1" source="urUO4fphp7MKT8ow5D5r-77" target="urUO4fphp7MKT8ow5D5r-82" edge="1">
          <mxGeometry relative="1" as="geometry" />
        </mxCell>
        <mxCell id="urUO4fphp7MKT8ow5D5r-90" value="Да" style="edgeLabel;html=1;align=center;verticalAlign=middle;resizable=0;points=[];" parent="urUO4fphp7MKT8ow5D5r-88" vertex="1" connectable="0">
          <mxGeometry x="-0.4" relative="1" as="geometry">
            <mxPoint x="8" as="offset" />
          </mxGeometry>
        </mxCell>
        <mxCell id="urUO4fphp7MKT8ow5D5r-77" value="Договор подписан?" style="rhombus;whiteSpace=wrap;html=1;" parent="1" vertex="1">
          <mxGeometry x="1215" y="300" width="105" height="80" as="geometry" />
        </mxCell>
        <mxCell id="urUO4fphp7MKT8ow5D5r-91" style="edgeStyle=orthogonalEdgeStyle;rounded=0;orthogonalLoop=1;jettySize=auto;html=1;exitX=0.5;exitY=1;exitDx=0;exitDy=0;entryX=0.5;entryY=0;entryDx=0;entryDy=0;" parent="1" source="urUO4fphp7MKT8ow5D5r-82" target="urUO4fphp7MKT8ow5D5r-83" edge="1">
          <mxGeometry relative="1" as="geometry" />
        </mxCell>
        <mxCell id="urUO4fphp7MKT8ow5D5r-82" value="2.Передать договора в службу управления делами" style="rounded=0;whiteSpace=wrap;html=1;" parent="1" vertex="1">
          <mxGeometry x="1207.5" y="410" width="120" height="60" as="geometry" />
        </mxCell>
        <mxCell id="urUO4fphp7MKT8ow5D5r-92" style="edgeStyle=orthogonalEdgeStyle;rounded=0;orthogonalLoop=1;jettySize=auto;html=1;exitX=0.5;exitY=1;exitDx=0;exitDy=0;entryX=0.5;entryY=0;entryDx=0;entryDy=0;" parent="1" source="urUO4fphp7MKT8ow5D5r-83" target="urUO4fphp7MKT8ow5D5r-84" edge="1">
          <mxGeometry relative="1" as="geometry" />
        </mxCell>
        <mxCell id="urUO4fphp7MKT8ow5D5r-83" value="3.Зарегистрировать договора в журнале регистрации" style="rounded=0;whiteSpace=wrap;html=1;" parent="1" vertex="1">
          <mxGeometry x="1160" y="500" width="215" height="60" as="geometry" />
        </mxCell>
        <mxCell id="urUO4fphp7MKT8ow5D5r-93" style="edgeStyle=orthogonalEdgeStyle;rounded=0;orthogonalLoop=1;jettySize=auto;html=1;exitX=0.5;exitY=1;exitDx=0;exitDy=0;entryX=0.5;entryY=0;entryDx=0;entryDy=0;" parent="1" source="urUO4fphp7MKT8ow5D5r-84" target="urUO4fphp7MKT8ow5D5r-85" edge="1">
          <mxGeometry relative="1" as="geometry" />
        </mxCell>
        <mxCell id="urUO4fphp7MKT8ow5D5r-84" value="4.Направить подписанного экземпляра контрагенту" style="rounded=0;whiteSpace=wrap;html=1;" parent="1" vertex="1">
          <mxGeometry x="1207.5" y="590" width="120" height="60" as="geometry" />
        </mxCell>
        <mxCell id="urUO4fphp7MKT8ow5D5r-94" style="edgeStyle=orthogonalEdgeStyle;rounded=0;orthogonalLoop=1;jettySize=auto;html=1;exitX=0.5;exitY=1;exitDx=0;exitDy=0;entryX=0.5;entryY=0;entryDx=0;entryDy=0;" parent="1" source="urUO4fphp7MKT8ow5D5r-85" target="urUO4fphp7MKT8ow5D5r-86" edge="1">
          <mxGeometry relative="1" as="geometry" />
        </mxCell>
        <mxCell id="urUO4fphp7MKT8ow5D5r-85" value="5.Проконтролировать за направлением контрагенту подписанного договора" style="rounded=0;whiteSpace=wrap;html=1;" parent="1" vertex="1">
          <mxGeometry x="1180" y="675" width="175" height="60" as="geometry" />
        </mxCell>
        <mxCell id="urUO4fphp7MKT8ow5D5r-95" style="edgeStyle=orthogonalEdgeStyle;rounded=0;orthogonalLoop=1;jettySize=auto;html=1;exitX=0.5;exitY=1;exitDx=0;exitDy=0;entryX=0.5;entryY=0;entryDx=0;entryDy=0;" parent="1" source="urUO4fphp7MKT8ow5D5r-86" target="urUO4fphp7MKT8ow5D5r-87" edge="1">
          <mxGeometry relative="1" as="geometry" />
        </mxCell>
        <mxCell id="urUO4fphp7MKT8ow5D5r-86" value="6.Сохранить подписанной копии и передача копии бухгалтеру" style="rounded=0;whiteSpace=wrap;html=1;" parent="1" vertex="1">
          <mxGeometry x="1207.5" y="770" width="120" height="60" as="geometry" />
        </mxCell>
        <mxCell id="urUO4fphp7MKT8ow5D5r-87" value="Конец" style="rounded=1;whiteSpace=wrap;html=1;" parent="1" vertex="1">
          <mxGeometry x="1234" y="860" width="67" height="30" as="geometry" />
        </mxCell>
        <mxCell id="YELUM3OFP102UQ7-4eXt-1" value="5 дней" style="shape=delay;whiteSpace=wrap;html=1;" vertex="1" parent="1">
          <mxGeometry x="570" y="290" width="80" height="60" as="geometry" />
        </mxCell>
        <mxCell id="YELUM3OFP102UQ7-4eXt-2" value="2 дня" style="shape=delay;whiteSpace=wrap;html=1;" vertex="1" parent="1">
          <mxGeometry x="1228" y="240" width="80" height="30" as="geometry" />
        </mxCell>
        <mxCell id="YELUM3OFP102UQ7-4eXt-3" value="2 дня" style="shape=delay;whiteSpace=wrap;html=1;" vertex="1" parent="1">
          <mxGeometry x="360" y="640" width="80" height="40" as="geometry" />
        </mxCell>
      </root>
    </mxGraphModel>
  </diagram>
</mxfile>
